<svg xmlns="http://www.w3.org/2000/svg" style="display:block" viewBox="0 0 2048 2048"><path fill="#0D1D38" d="M0 0h2048v2048H0z"/><path fill="#84F2C4" d="M1401.92 649.971c3.37 1.493 6.79 4.054 8.93 7.081l-1.16 1.306c-2.52.976-4.59 1.993-7.37 1.56-1.55-3.061-.66-6.551-.4-9.947M629.192 1400.22c.258-.04.513-.12.774-.12 6.374.04 17.077 11.6 22.015 15.92l-.163 22.85-11.135-9.02-31.564-25.16c6.71-1.35 13.39-2.98 20.073-4.47m140.931-155.93c7.344 3.25 34.901 22.79 38.327 29.11l-1.705 1.09c-7.385 1.56-15.102 2.64-22.596 3.57-4.701.59-8.982 1.23-12.969-1.86-4.484-7.38-1.458-23.47-1.057-31.91m629.927-630.757c7.72 4.316 44.73 30.501 48.3 36.334l-1.58 1.331c-7.09 1.772-14.2 3.1-21.39 4.367-7.73-6.709-15.23-13.859-24.57-18.253-.8-7.948-.81-15.796-.76-23.779m-149.42 161.87c2.87-.537 6.38-.331 9.33-.436l25.42 20.137-2.96 21.397-7.75-6.653c-14.69-10.58-29.03-21.669-43.58-32.442 6.51-.44 13.04-1.308 19.54-2.003M591.726 1409.25c13.813 6.83 47.108 34.57 60.338 45.42l.05 20.41-8.859-5.94c-20.829-15.47-52.268-35.84-69.042-54.49 5.704-2.2 11.636-3.73 17.513-5.4m186.34-200.85c8.52 5.53 16.56 12.63 24.725 18.75 16.425 12.31 33.359 24.23 48.869 37.68l-1.082.32 2.523 1.32c-1.651 1.87-3.945 1.98-6.314 2.64-5.219 1.07-10.385 2.56-15.543 3.9-18.401-16.17-40.134-29.3-57.303-46.72.997-6.07 2.555-11.94 4.125-17.89m623.494-631.953c11.14 6.223 21.25 15.09 31.29 22.914l49.39 38.455-8.24 4.144-9.17 3.981c-15.17-10.06-52.37-41.337-65.96-45.885.24-7.937.9-15.863 2.69-23.609m-192.77 205.91c.54-.102 1.08-.231 1.63-.306 2.1-.291 3.19-.285 5.09.694 7.93 4.079 15.71 10.783 22.95 16.021 14.46 10.467 29.01 20.84 43.01 31.93-.72 6.87-1.97 13.694-3.09 20.51l-7.85-5.608c-13.28-9.625-26.24-19.715-39.45-29.453-13.1-9.661-27.23-18.93-38.81-30.378 5.42-1.599 10.97-2.444 16.52-3.41m203.87-319.717c30.39 20.141 59.54 42.512 88.77 64.289 27.89 20.773 56.54 41.364 83 63.924l-8.69 5.146c-1.64 1.275-3.48 3.077-5.57 3.438-1.16.2-1.87-.613-2.81-1.213-24.57-15.821-46.9-34.593-70.41-51.885a6028 6028 0 0 1-58.36-43.14c-10.23-7.519-20.89-14.512-30.77-22.476 1.33-6.126 3.04-12.079 4.84-18.083m-608.631 638.83c8.018 2.97 22.653 17.21 30.32 23.02 26.773 20.32 53.734 40.43 80.263 61.06 20.454 15.9 40.307 32.49 61.134 47.92l-11.298 4.12-7.674 4.11c-52.598-42.15-106.973-82.44-160.809-123.01 2.519-5.83 5.282-11.52 8.064-17.22m-321.498 351.42c6.545 1.72 149.281 110.92 161.259 123.17-.843 4.54-.97 11.53-4.129 14.92-2.998.45-3.883-.85-6.359-2.48-56.388-41.05-110.406-85.93-167.671-125.7 5.419-3.59 11.26-6.68 16.9-9.91m606.919-644.026c3.68.972 152.1 112.532 166.55 124.23-1.42 2.984-2.9 5.952-4.08 9.034-1.13 2.928-1.68 4.497-4.15 6.5-3.29-.016-4.16-1.59-6.61-3.679-40.73-31.779-82.83-62.683-124.62-93.077-15.9-11.564-32.22-22.552-47.94-34.357 6.77-3.238 13.89-5.862 20.85-8.651M454.614 1469.69c6.338 1.4 162.39 123.13 183.554 137.68-1.561 4.68-3.309 13.15-7.219 16.12l-2.415-.92c-64.29-44.95-124.502-95.97-188.025-142.03 4.563-3.76 9.397-7.26 14.105-10.85M1423.37 431.48c9.08 5.771 17.5 12.935 26.16 19.331a5484 5484 0 0 1 60.89 45.332c33.22 24.892 68.31 48.491 99.77 75.541-3.14 3.117-6.62 5.785-10.07 8.534-.91.754-2.5 1.626-3.5 2.267-1.44-.162-2.22-.443-3.39-1.332a6519 6519 0 0 0-115.26-86.101c-20.42-15.046-41.91-29.327-61.35-45.6zM815.197 1071.8c23.382 14.43 49.259 36.82 71.477 53.78 40.273 30.75 81.203 60.92 120.926 92.34l-12.165 6.23-6.484 2.55c-61.34-45.54-121.199-93.02-181.977-139.29zm241.023-246.942c9.52.142 168.07 122.492 188.66 138.02-2.67 5.139-5.1 10.888-8.8 15.365l-1.74-.153-99.02-75.107c-31.67-23.638-63.99-46.605-95.26-70.744 5.32-2.578 10.78-4.928 16.16-7.381M866.203 990.57c6.259 2.885 43.847 33.76 52.918 40.66a7978 7978 0 0 1 118.949 90.85c18.04 13.83 36.55 26.9 54.09 41.38a724 724 0 0 1-12.66 8.36l-1.94.95c-5.93-.77-196.519-148.21-221.946-167.01 3.221-5.32 6.871-10.222 10.589-15.19m79.147-94.806c5.171 1.501 42.347 31.591 48.975 36.599l91.625 68.857c30.59 23.38 60.74 47.36 92.04 69.79-3.03 4.53-5.96 9.04-9.58 13.13-11.84-7.61-23.11-16.45-34.53-24.72-26.48-19.19-52.43-38.77-78.35-58.71l-122.054-93.43zm24.086-20.019c5.416 1.317 210.774 158.125 224.424 171.445-2.1 3.11-7.05 11.52-10.42 12.43-16.43-11.43-31.97-24.21-47.9-36.32L1041 951.625a5033 5033 0 0 0-53.401-39.572c-10.835-7.971-22.354-15.596-32.175-24.804 4.537-4.039 9.194-7.804 14.012-11.504m490.614-543.968c36.13 23.418 70.2 51.503 104.44 77.624a14712 14712 0 0 1 126.54 95.786c-3.5 4.358-7.44 8.332-11.31 12.364-5.95.328-168.52-126.093-186.03-139.212-14.24-10.668-28.87-20.879-43.42-31.124zM374.7 1531.61c13.802 9.37 26.724 20.81 40.289 30.66a6399 6399 0 0 1 189.662 144.34c-2.264 4.73-4.358 9.42-7.493 13.66l-1.651.13c-38.581-25.35-78.226-57.55-115.157-85.79l-64.93-49.94c-17.509-13.34-35.399-26.33-52.358-40.37 3.998-4.1 7.784-8.45 11.638-12.69m508.215-566.887c31.608 25.432 64.511 48.807 96.636 73.517a8472 8472 0 0 0 84.639 64.41c17.74 13.48 35.1 27.34 53.33 40.15-3.95 3.89-8.15 7.1-12.6 10.38-.52.5-1.8 1.11-2.45 1.48-1.58-.41-2.77-.91-4.1-1.89-13-9.53-25.49-20.1-38.26-29.97l-82.56-62.8c-22.581-16.89-45.369-33.46-67.782-50.58-12.61-9.634-25.973-19.002-37.179-30.271 3.095-5.09 6.69-9.719 10.326-14.426m591.095-660.675c36.73 22.732 70.55 52.391 105.1 78.333l80.16 60.147c16.74 12.655 33.99 24.951 49.54 39.064l-9.51 13.625c-53.47-37.846-105.11-78.42-157.41-117.861-25.73-19.396-51.19-40.339-78.63-57.213 3.46-5.441 7.15-10.749 10.75-16.095M275.31 1656.68c19.264 10.62 37.745 28.08 55.68 41.24a10079 10079 0 0 1 188.949 144.5c-4.014 4.02-7.521 8.49-11.121 12.87-7.346-3.47-15.26-11.19-21.804-16.21l-51.358-39.3-91.053-68.99c-26.418-19.71-53.761-39.24-78.592-60.88 2.881-4.62 6.005-8.91 9.299-13.23m79.452-103.97c32.793 27.38 67.936 52.48 102.119 78.09 22.778 17.06 45.107 34.9 67.671 52.26 22.522 17.33 46.402 33.6 66.862 53.36-2.607 4.47-5.775 10.77-10.044 13.76-25.628-18.78-49.951-39.48-75.249-58.73-54.708-41.62-109.89-82.46-163.566-125.46zM1543.61 197.429c9.76 4.253 40.34 29.103 50.53 36.648a8413 8413 0 0 1 125.09 94.153c21.88 16.657 45.72 32.864 65.86 51.555-1.15 2.944-2.21 6.061-3.62 8.886-1.42 2.868-2.01 4.614-5.06 5.566-17.16-14.338-35.58-27.404-53.53-40.735l-82.49-61.313c-22.41-16.744-87.01-69.948-108.37-78.183 4.12-5.373 7.88-10.914 11.59-16.577m-16.99 24.058c6.75 3.064 14.01 10.177 20.03 14.693l45.21 33.872c59.48 44.992 119.87 88.973 178.09 135.584-3.22 4.83-6.93 9.098-10.74 13.463-31.07-21.418-60.39-46.068-90.69-68.648l-103.77-78.137c-16.4-12.466-33.28-24.265-49.34-37.179a1079 1079 0 0 0 11.21-13.648M291.012 1629.95c15.062 10.31 29.468 21.72 44.081 32.66l83.31 63.07c39.619 30.39 79.881 59.64 118.557 91.27-3.31 4.6-6.802 9.08-10.205 13.6-4.653.04-35.626-26.77-42.23-31.97-66.708-52.48-136.256-101.43-203.318-153.5z"/><path fill="#84F2C4" d="M646.879 1353.49c3.364 3.4 2.507 20.9 2.693 26.23-32.43 4.34-64.824 9.84-95.962 20.14-135.515 44.82-241.723 143.82-312.449 266.2-9.01 15.59-16.197 31.94-24.262 48.01l-9.592-7.9c-3.552-2.95-7.338-5.3-11.247-7.74 19.604-46.49 54.879-99.99 87.138-138.94 75.896-91.64 176.954-161.91 292.521-192.48 23.325-6.17 47.109-11.28 71.16-13.52M1828.46 342.541c8.23 5.383 16.56 10.62 24.17 16.89-17.63 36.82-39.59 72.545-63.77 105.412a599.2 599.2 0 0 1-276.21 208.459c-28.56 10.389-57.86 18.927-87.94 23.5-6.61 1.021-13.27 1.77-19.91 2.617l-2.04-23.305a447.3 447.3 0 0 0 96.33-24.411c145.85-53.626 264.46-168.596 329.37-309.162"/><path fill="#84F2C4" d="M637.701 1283.41c2.63-.33 3.285-.64 5.814.36 4.491 8.11 2.76 26.47 3.276 35.78-39.707 3.41-81.13 13.47-118.746 26.52-136.002 47.2-250.73 147.76-325.857 269.37-10.843 17.55-21.429 35.01-30.439 53.6l-10.369-7.61c-7.261-5.7-14.225-11.63-21.153-17.72 19.672-38.46 44.655-76.63 71.773-110.21 15.334-18.98 30.712-38.36 47.629-55.96 100.252-104.27 233.155-178.53 378.072-194.13M1875.02 381.937c9.96 9.039 21.13 16.787 31.33 25.593-4.81 11.073-11.85 21.656-18 32.054-12.71 21.496-25.57 42.877-39.93 63.33a637.75 637.75 0 0 1-413.19 262.177 518 518 0 0 1-26.41 3.314 1341 1341 0 0 1-.9-36.228c34.02-5.935 66.53-12.185 99.34-23.449a632.45 632.45 0 0 0 367.76-326.791m-627.09 349.64a340 340 0 0 1 38.14-.682c.67 9.001.62 18.101.81 27.124a1157 1157 0 0 0-37.81 1.285c-145.59 8.251-269.39 57.52-367.232 167.354-12.898 14.479-24.199 30.131-35.286 46.015-56.043 80.287-82.513 162.297-92.459 259.327a747 747 0 0 0-3.02 120.42c.97 16.27 1.239 38.81 5.257 54.29 2.39 9.21 8.807 4.23 9.73 22.19a714.14 714.14 0 0 1-120.119 437.01c-27.234 40.23-58.458 76.56-91.158 112.36-3.679 4.16-7.8 7.95-11.781 11.81-9.335-9.67-17.578-20.52-26.04-30.96 97.389-96.39 165.72-207.77 196.019-342 8.82-39.07 14.762-79.93 15.899-120 1.902-67.05-6.765-133.86-5.644-200.85 2.268-135.48 43.842-279.32 134.692-382.478 104.36-118.501 233.642-172.233 390.002-182.215"/><path fill="#84F2C4" d="M1511.15 60.639c8.62 4.036 21.33 20.39 27.73 27.764-18.65 19.981-37.83 39.216-55.43 60.18-51.65 61.538-96.64 137.723-123.27 213.629a655.7 655.7 0 0 0-35.3 212.626c.05 48.391 4.07 96.886 5.08 145.29 3.43 165.927-33.7 295.452-146.67 419.732-79.88 87.87-179.61 141.5-294.794 167.39-33.866 7.62-68.159 13.29-102.87 14.94-5.712.57-11.465.6-17.201.76l.12-27.65c34.181-4.74 68.413-6.4 102.569-12.38a512.47 512.47 0 0 0 279.736-146.26 520.73 520.73 0 0 0 152.96-397.806c-2.88-60.601-14.78-120.389-14.89-181.229-.33-169.361 67.65-324.01 178.06-450.802 13.98-16.051 29.15-31.115 44.17-46.184"/><path fill="#84F2C4" d="m1274.72 659.51 2.83.051c3.67 5.09 4.18 31.335 4.76 38.649-23.48.704-47.17 1.285-70.55 3.677-58.71 6.008-118.96 21.511-173.69 43.499-154.259 61.978-266.738 192.51-315.156 350.424-17.781 57.99-26.46 118.11-29.777 178.52-4.004 72.94 3.045 145.48 1.895 218.37-1.236 78.28-19.59 157.42-50.378 229.23-30.555 71.27-77.865 135.94-130.86 192.16-5.67 6.02-12.45 17.4-20.028 20.44-3.296-.81-3.905-2.5-5.988-5.09a1101 1101 0 0 1-10.581-12.93c7.329-8.5 15.433-16.42 22.988-24.73 109.775-120.84 166.428-249.02 170.02-413.36 1.617-73.99-5.421-148.08-8.894-221.93-1.577-33.52 3.344-68.34 9.088-101.33 20.944-120.27 66.841-215.61 148.868-305.838 83.069-91.375 198.643-149.334 318.823-173.999 45.04-9.244 90.76-13.625 136.63-15.813"/><path fill="#84F2C4" d="M1557.72 118.009c5.27 5.172 9.95 11.426 14.76 17.045-5.67 7.151-12.43 13.752-18.58 20.523-95.21 104.905-164.99 250.484-170.87 393.457-2.87 69.776 5.53 137.828 8.87 207.179 7.74 160.984-39.45 303.127-148.43 422.877a645.36 645.36 0 0 1-454.028 212.13c-6.055.51-12.179.63-18.252.89-1.601-12.66-2.121-25.29-2.427-38.03 128.857-3.71 259.147-43.96 361.757-123.19a577 577 0 0 0 124.79-129.68c88.36-124.115 106.93-244.52 105.99-393.884-.15-24.664-2.08-49.198-3.12-73.824-1.9-44.977-2.33-90.958 3.5-135.685 10.45-80.299 37.65-155.436 77.09-225.878 8.45-15.098 16.84-30.228 26.52-44.585 11.8-17.49 25.22-34.069 38.44-50.485 16.18-20.09 33.48-43.048 53.99-58.86m-14.4 1058.261c10.22-1.16 20.71.52 30.25 4.27 53.71 21.11 98.35 102.78 120.76 153.66 48.79-7.18 155.64-6.18 195.33 23.69 12.27 9.23 20.89 22.36 22.98 37.76 6.84 50.49-45.87 125.03-75.89 164.32 32.27 41.43 77.84 106.95 75.03 161.06-.85 16.16-6.72 30.86-19.09 41.69-45.33 39.73-139.89 31.91-196.79 28.07-13.64 32.86-29.18 64.86-50.13 93.78-21.79 30.07-49.56 58.09-87.53 64.12-10.36.9-20.49-.8-30.18-4.48-58.49-22.2-93.2-98.32-117.15-151.96-52.16 8.57-149.45 5.96-193.22-24.24-14.51-10.01-23.61-24.55-26.62-41.89-9.03-52.01 43.99-124.24 73.03-165.31-29.68-41.88-80.72-111.04-74.1-164.44 1.92-15.55 9.4-28.54 21.77-38.13 43.06-33.37 145.51-30.02 197.28-23.79 11.8-30.32 27.19-60.68 46.09-87.21 20.3-28.5 51.78-64.79 88.18-70.97"/><path fill="#0D1D38" d="M1680.75 1346.41c2.41-.36 4.28-.35 6.69-.04 9.49 10.29 24.57 81.35 28.25 97.98-21.25-15.72-45.22-28.7-68.24-41.59-25.57-13.09-50.89-24.4-77.88-34.25 35.35-11.84 74.19-18.14 111.18-22.1m-265.41-.53c41.1 4.18 79.81 11.66 119.52 22.99-25.31 10.41-49.82 19.49-74.33 31.96-26.12 13.77-50.36 28.59-74.72 45.27 9.01-34.15 16.89-67.1 29.53-100.22m-26.45 332.7c10.88 4.52 21.09 14.84 31.49 20.91 37.94 22.15 74.66 42.26 116.63 55.85-6.68 2.29-13.62 4.04-20.41 5.99-33.08 7.99-65.43 15.02-99.23 19.36a647.7 647.7 0 0 1-28.48-102.11m325.91-1.77c.64.57.34.21.83 1.32 1 2.28-.56 8.82-.98 11.42-5.02 30.93-14.68 60.89-25.86 90.07-33.96-3.26-66.6-10.11-99.59-18.67-6.97-2.46-14.64-3.98-21.81-5.91 53.38-17.62 101.66-45.93 147.41-78.23m-344.31-204.03c2.03 2.05 1.32 4.33 1 7.07-1.35 11.89-3.19 23.84-4.03 35.77-3.22 45.14-1.1 92.74 6.57 137.36-16.06-11.96-31.56-25.14-46.22-38.78-17.19-16.74-33.12-34.89-48.91-52.93 26.73-31.99 57.98-63.66 91.59-88.49m358.87-4.32c7.13 3.69 14.08 10.91 20.21 16.25 26.65 23.19 52.42 47.07 73.8 75.32-14.66 17.5-30.68 33.81-46.59 50.18-15.03 15.11-30.43 29.51-47.08 42.82a638.6 638.6 0 0 0-.34-184.57m7.03-126.03c39.1-2.75 112.57.03 144.68 22.65 10.85 7.64 19.09 18.85 21.23 32.14 6.09 37.79-33.99 100.51-55.79 131.29a1339 1339 0 0 1-16.88 22.18c-13.44-15.45-25.76-31.07-40.81-45.13-19.84-18.52-42.3-34.87-61.54-53.82-2.78-12.99-4.77-26.09-7.9-39.02-5.58-23.11-13.24-45.43-21.26-67.78 12.65-1.41 25.56-1.76 38.27-2.51m-410.64-.99c26.59-.96 52.67.73 79.17 2.79-14.79 36.03-23.78 72.87-30.39 111.15-35.83 28.26-68.9 58.3-98.95 92.74l-3.49 3.64c-.55-.25-1.13-.43-1.63-.75-4.54-2.96-10.35-13.26-13.74-18-23.95-33.59-53.49-80.29-56.68-122.09-1.03-13.44 1.58-27.66 10.82-37.99 23.05-25.79 81.59-29.74 114.89-31.49m503.53 228.32c.95.47 1.24.56 2.15 1.36 5.9 5.19 10.91 13.95 15.49 20.34 24.35 34.02 51.42 76.79 54.61 119.34 1.07 14.28-1.33 28.95-11.24 39.95-24.75 27.47-79.34 31.52-114.04 33.19-25.65.73-50.69-.93-76.2-3.16 13.3-36.14 24.55-74.69 28.23-113.15 9.89-7.47 19.22-16.36 28.46-24.65a752 752 0 0 0 72.54-73.22m-557.71-.2c6.8 4.75 31.6 35.28 40.67 44.28 20.38 20.25 42.96 38.24 65.23 56.33 4.1 37.33 16.48 76.99 29.37 112.13a522.5 522.5 0 0 1-68.65 2.82c-37.36-.44-87.2-4.58-117.48-28.44-11.43-9.01-18.74-21.46-20.16-36.07-4.34-44.5 43.53-117.01 71.02-151.05m274.2-383.23c7.93-.17 15.26.76 22.7 3.5 11.83 4.35 22.03 12.5 31.33 20.81 37.94 33.89 63.01 79.44 84.23 124.95-43.08 3.48-86.77 13.21-127.97 26.08-10.01 3.33-52-12.76-65.57-15.45a732 732 0 0 0-71.18-10.69 452.3 452.3 0 0 1 51.68-90.59c17.6-23.47 43.93-54.17 74.78-58.61m3.56 574.53c8.33-.83 32.88 9.08 42.41 11.68a578 578 0 0 0 92.31 17.65c-12.73 34.17-29.88 67.43-52.57 96.12-19.19 24.28-42.75 47.67-74.82 51.35-8.87.53-16.96-.4-25.34-3.47-51.03-18.66-88.87-96.9-110.04-143.22 42.87-5.19 87.84-14.17 128.05-30.11m1.42-386.82c9.45 1.88 19.8 6.49 28.86 9.9 49.94 18.83 94.87 44.09 138.06 75.23a615.2 615.2 0 0 1 7.14 138.31c-1.47 21.01-4.96 41.84-6.21 62.83-50.03 37.61-106.55 70.43-166.34 89.65-64.46-23.17-113.36-47.37-167.8-89.3-9.28-73.29-8.35-126.67-.33-199.89 52.52-37.67 106.53-63.63 166.62-86.73"/><path fill="#84F2C4" d="M1495.47 1458.19c3.89.45 7.58.79 10.97 2.9 5.22 3.27 8.82 8.23 10.11 14.28 1.23 5.8.31 11.87-2.96 16.86-4.15 6.36-9.77 8.38-16.94 9.67-3.45-.38-6.81-.84-9.91-2.48-5.41-2.86-9.78-7.83-11.42-13.76a19.6 19.6 0 0 1 1.96-15.24c4.03-6.92 10.7-10.28 18.19-12.23m-30.99 104.07c3.29.28 6.57.53 9.63 1.88 5.47 2.41 9.79 6.84 11.74 12.51a22.77 22.77 0 0 1-1.07 17.3c-3.74 7.65-9.57 10.91-17.41 13.39-4.61-.47-8.65-1.35-12.65-3.81a22.54 22.54 0 0 1-10.29-14.34 21.82 21.82 0 0 1 3.14-16.82c4.15-6.18 9.85-8.67 16.91-10.11m84.77 57.79c3.66-.31 7.54-.3 11.08.75 6.52 1.93 12.11 6.35 15.15 12.48a21.27 21.27 0 0 1 .76 17.32c-3.02 7.58-9.17 11.32-16.36 14.32-3.79.33-8.03.65-11.71-.4-6.19-1.76-11.62-6.14-14.46-11.92a21.55 21.55 0 0 1-.78-17.14c3.02-7.96 8.85-12.01 16.32-15.41m57.89-159.87c5.86-.76 11.62-.73 17.01 2.01 7.74 3.93 10.87 11.36 13.36 19.15-.57 2.41-1.16 4.84-2.04 7.17-3.09 8.29-8.07 12.28-15.91 15.95-4.06.63-8.86 1.1-12.86-.06-5.86-1.71-10.89-5.56-13.79-10.94a22.1 22.1 0 0 1-1.65-17.3c2.67-8.22 8.39-12.39 15.88-15.98m28.07 108.86c6.05-.39 11.75.11 17.15 3.12 7.43 4.15 10.74 11.3 13.06 19.1-.51 2.29-1.06 4.57-1.84 6.79-2.98 8.51-7.76 12.5-15.69 16.41-4.66.74-9.44.9-13.97-.61-5.83-1.94-10.81-5.96-13.52-11.52a22.82 22.82 0 0 1-.89-17.64c2.85-8.09 8.13-12.25 15.7-15.65m-85.12-62.65c9.69.03 18.31 1.53 26.87 6.45 10.81 6.23 19.29 16.83 22.27 29.02 2.95 12.02.25 24.89-6.54 35.15-8.15 12.32-20.43 17.98-34.32 20.97-10.89.49-21.06-1.33-30.23-7.57a48.07 48.07 0 0 1-19.86-30.96c-2.13-12.38 2-26.1 9.5-36.06 7.99-10.6 19.51-15.35 32.31-17M533.347 78.414c10.149-.923 21.099-.072 31.156 1.443 36.701 5.525 70.733 24.824 95.691 52.112 8.025 8.775 14.93 18.852 22.036 28.379 25.332-6.181 54.415-6.765 79.858-1.244a152.7 152.7 0 0 1 98.472 68.67c23.053 36.557 24.693 81.976 15.166 123.116 23.81 15.765 45.311 32.572 60.693 57.098a162.33 162.33 0 0 1 20.08 123.061c-11.546 49.584-39.457 73.611-80.923 99.262 4.215 30.151 7.741 62.029.385 91.934-8.394 34.125-28.96 65.059-59.328 83.396-39.783 24.021-85.385 22.945-129.126 11.922a479 479 0 0 1-11.137 15.571c-29.741 39.102-68.889 61.307-117.25 67.774-11.59.467-23.122.608-34.646-.93-54.299-7.251-90.913-40.036-123.074-81.651-26.109 8.26-57.285 8.372-83.888 2.455-39.199-8.72-69.621-31.994-90.743-65.821-24.471-39.189-25.915-82.736-15.595-126.751-19.281-13.729-37.663-27.42-51.871-46.65a155.14 155.14 0 0 1-27.835-115.59c8.237-51.869 39.034-83.066 79.966-112.508-6.23-26.488-8.638-51.569-3.887-78.582 6.608-37.568 26.437-69.965 57.987-91.919 42.783-29.769 89.136-29.368 138.354-20.465a291 291 0 0 1 19.907-26.875c28.81-34.006 65.081-53.603 109.552-57.207"/><path fill="#0D1D38" d="M652.802 303.045c24.146 3.351 48.09 7.789 72.201 11.313a1421 1421 0 0 1 9.777 68.155c-8.321-5.181-34.956-36.176-44.363-45.396-12.117-11.875-25.374-22.382-37.615-34.072m-224.715 1.344c1.822-.324 3.38-.307 5.222-.281l.072 1.131c-6.209 7.365-15.513 13.126-22.5 20.063a1132 1132 0 0 0-53.19 56.748l-3.124 3.221c-3.077-9.549 6.336-58.761 8.519-70.793a1012 1012 0 0 1 65.001-10.089m301.728 291.54c3.616 5.797-4.646 61.555-6.016 71.625a889 889 0 0 1-69.43 10.195l-.603-1.28c8.313-8.267 17.219-15.874 25.51-24.176a792 792 0 0 0 50.539-56.364m-373.904-.549c7.263 4.965 17.305 19.591 24.147 26.509 18.901 19.109 38.834 37.174 58.637 55.334-18.942 1.067-54.276-6.713-74.308-9.97-3.246-24.216-7.959-47.304-8.476-71.873m118.345 96.619c18.001-.539 36.668 1.816 54.726 2.339a808 808 0 0 0 90.364-2.577c-8.442 6.312-17.299 12.202-25.937 18.253-15.755 10.614-31.489 21.765-48.325 30.624-23.016-13.659-50.599-31.532-70.828-48.639M340.647 418.93c2.024 3.638-.484 27.058-.6 33.269a1552 1552 0 0 0 2.181 108.905 625 625 0 0 1-21.649-27.604c-10.785-14.199-20.662-29.131-30.758-43.825 16.588-23.893 33.671-47.263 50.826-70.745m202.49-183.865c26.145 17.493 51.317 36.055 76.884 54.351a1108 1108 0 0 0-77.439-2.392 1633 1633 0 0 0-76.649 3.163c26.317-17.158 51.635-36.77 77.204-55.122m202.082 179.452c11.348 8.104 46.293 60.961 55.403 74.945-11.98 14.602-22.454 30.619-33.765 45.772l-23.076 30.022c1.251-49.82 7.577-101.049 1.438-150.739m-398.496-97.356c.875-.109 2.43.087 3.33.133.121.32.278.63.364.961 2.122 8.187-2.795 22.858-3.783 31.592-1.549 13.698-.951 36.69-4.989 49.118-2.785 8.576-23.87 32.062-30.764 41.471-9.247 12.618-18.365 25.518-26.55 38.855-7.839-9.85-14.023-20.894-20.226-31.809-15.669-27.771-29.818-57.826-39.155-88.356 39.521-19.004 79.103-32.045 121.773-41.965m388.9-.578c44.931 8.208 86.766 20.518 128.115 39.932-8.63 30.717-20.661 58.783-35.286 87.079-6.71 12.093-14.164 23.647-21.74 35.207-8.053-10.22-14.903-21.601-22.637-32.11-12.784-17.373-26.35-34.179-39.329-51.41a631 631 0 0 0-9.123-78.698m-15.334 362.722.794.039.932 1.625c-.525 9.983-3.017 20.27-5.15 30.03-7.373 33.729-17.385 64.23-33.834 94.75-30.611-6.708-59.948-21.289-87.726-35.393-12.949-7.013-26.422-14.065-38.145-23.022a709 709 0 0 0 82.52-58.075c26.799-.206 54.311-5.082 80.609-9.954M408.07 174.594c48.69 14.795 81.522 29.851 125.55 54.905-23.959 15.16-46.402 32.33-69.125 49.254-5.596 4.166-11.013 8.586-16.472 12.93-27.999 1.824-55.952 6.772-83.583 11.517 9.756-45.247 24.184-86.707 43.63-128.606m-41.645 503.882a506 506 0 0 0 42.137 6.501c13.742 1.544 30.236 1.489 43.23 5.836 10.006 3.347 27.249 18.743 36.625 25.379 15.229 10.78 30.718 21.539 46.62 31.295a1913 1913 0 0 1-36.402 20.077c-29.378 15.349-58.964 27.802-90.482 38.094-23.146-37.213-34.106-84.475-41.728-127.182m-83.388-178.631c18.75 27.758 39.668 53.979 60.024 80.552 3.768 28.668 5.771 56.938 10.851 85.524a922 922 0 0 1-46.139-11.119c-28.413-7.389-59.065-17.766-83.968-33.427 13.833-42.052 35.325-84.355 59.232-121.53M676.27 173.176c.249.131.519.229.747.394 3.262 2.356 6.38 10.823 8.246 14.53 18.65 37.059 30.347 74.602 37.62 115.418-13.823-2.969-27.9-5.354-41.88-7.453-13.54-2.032-30.93-2.219-43.343-7.762-4.021-1.796-7.896-5.392-11.349-8.131-23.256-18.469-48.086-35.405-72.927-51.663 39.569-21.738 79.235-43.101 122.886-55.333m130.195 326.528c5.808 6.716 10.579 16.574 14.907 24.412 18.357 33.25 31.276 63.758 42.276 100.179-26.184 13.051-52.813 21.51-80.897 29.328a1668 1668 0 0 1-48.089 12.189c1.089-27.715 5.927-55.807 7.837-83.591 22.012-27.092 43.458-54.258 63.966-82.517m-88.961-333.289c11.439-.889 23.266-.009 34.547 1.973 38.203 6.71 73.187 26.824 95.299 59.004 24.73 35.99 26.806 76.819 19.042 118.554-5.628-2.716-11.4-5.129-17.135-7.604-35.538-16.205-77.096-27.619-115.759-32.793-5.388-47.815-22.805-93.561-46.282-135.182 9.833-2.378 20.225-3.152 30.288-3.952m-187.856-77.05c15.239-2.42 33.55.048 48.346 4.117 37.937 10.43 73.295 36.135 92.947 70.52-41.232 11.696-79.896 29.942-116.372 52.374-3.33 2.145-6.794 4.096-10.212 6.097-45.834-25.787-79.811-41.772-130.067-57.251a90 90 0 0 1 1.645-2.202c29.854-39.125 63.499-66.889 113.713-73.655M220.551 633.428c43.131 21.077 86.72 35.226 134.041 43.199 3.693 27.024 16.35 73.381 26.487 98.615 4.4 10.953 10.657 21.12 15.14 32.078-2.145 2.308-4.792 2.441-7.794 3.261-20.578 3.288-40.271 4.776-60.914.934-37.059-6.9-67.612-26.486-88.734-57.814-24.734-36.685-26.484-78.06-18.226-120.273m644.411 2.716c6.583 9.308 4.826 60.157 3.101 72.01-4.896 33.631-21.239 62.467-48.626 82.793-34.421 25.546-72.92 26.176-113.66 20.145l-12.312-2.801a400.3 400.3 0 0 0 40.112-131.797c43.827-6.924 90.75-22.311 131.385-40.35m-651.21-270.366c3.733 2.956 13.552 33.109 16.565 39.787 13.046 28.909 29.14 57.425 46.561 83.883-16.044 26.664-32.28 53.135-44.985 81.616-6.396 14.337-9.855 30.176-16.867 44.108-3.195.144-4.734-1.493-7.403-3.165-17.412-11.53-32.257-25.244-43.879-42.65a139.85 139.85 0 0 1-21.135-104.421c8.716-42.973 35.324-75.319 71.143-99.158m132.395-198.352c16.858-1.458 35.539 1.569 51.956 5.219-21.043 35.11-37.617 91.58-44.038 131.964-34.42 5.969-68.892 16.426-101.291 29.417-10.584 4.359-20.747 9.181-30.948 14.352a175.3 175.3 0 0 1-6.276-34.677c-2.797-35.995 7.527-71.214 31.247-98.641 25.923-29.974 60.357-44.723 99.35-47.634m198.707 587.42c8.711 2.115 39.108 21.88 50.765 27.746a520 520 0 0 0 81.255 32.731c-4.656 6.998-10.39 13.609-15.993 19.859-30.558 34.086-69.222 52.889-114.786 55.5-10.939-.196-21.531-.902-32.221-3.379-40.13-9.298-78.276-37.425-100.185-72.143 42.276-9.883 94.106-37.733 131.165-60.314m328.74-393.132c20.498 14.424 38.656 29.404 52.658 50.473 21.951 33.031 28.682 74.449 20.694 113.116-7.993 38.685-29.927 65.651-62.452 86.864l-11.679 7.32c-16.756-53.233-30.321-81.95-60.003-129.971 25.793-41.165 47.059-80.944 60.782-127.802m-347.897-63.266c35.498-1.466 70.918.122 106.301 2.873 36.447 24.91 74.502 66.299 103.217 99.628 4.72 56.318 1.358 120.64-2.975 177.346-15.906 17.964-31.648 36.288-48.446 53.418-16.255 16.577-33.78 32.086-50.479 48.235-22.994 2.648-46.25 3.228-69.369 3.853-34.461.416-70.181-.441-104.453-3.914-38.635-30.682-72.069-67.026-105.172-103.377-4.021-28.171-3.46-57.761-3.871-86.196-.403-27.892-2.33-58.036 2.26-85.583 30.354-38.172 65.074-70.917 101.856-102.736 23.608-2.034 47.452-2.651 71.131-3.547"/></svg>