<svg xmlns="http://www.w3.org/2000/svg" style="display:block" viewBox="0 0 2048 2048"><defs><linearGradient id="a" x1="-105.835" x2="848.11" y1="1277.17" y2="2110.7" gradientUnits="userSpaceOnUse"><stop class="stop0" offset="0"/><stop class="stop1" offset="1" stop-color="#030131"/></linearGradient><linearGradient id="b" x1="2137.52" x2="1080.21" y1="712.225" y2="23.911" gradientUnits="userSpaceOnUse"><stop class="stop0" offset="0" stop-color="#000001"/><stop class="stop1" offset="1" stop-color="#05052F"/></linearGradient></defs><path fill="#FEFEFE" d="M0 0h2048v2048H0z"/><path fill="#0E1F49" d="m356.344 1454.5 3.603.23c4.172 5.23 1.983 19.44 1.89 26.16l-45.087-.35c-1.421-.06-3.943.3-4.863-.86-3.671-4.65-1.658-19.24-1.561-25.14zm-46.306-89.48 52.147.07-.132 25.92-51.79.09c-.224-8.68-.16-17.39-.225-26.08"/><path fill="#C7C6C6" d="m1022.51 239.147 2.09 1.615c2.48 10.172.64 41.595.62 54.141l.07 120.873.01 375.464a17325 17325 0 0 0 .38 229.31c24.69 1.11 49.8.33 74.54.35l149.52-.19 376.57-.03c23.36-.1 167.59-2.23 173.79.1 1.77 1.74 1.99 1.65 2.16 4.09-2.45 1.87-7.11 1.46-10.23 1.5-82.99 1.02-166.2-.49-249.21-.58l-516.83.3a21583 21583 0 0 0-.68 273.34l-.03 503.82c-.08 2.26-.22 2.47-1.52 4.33-3.04-4.47.39-718.54-1.8-781.54-46.375-.89-92.905-.06-139.297-.01l-238.469-.02-231.035.03c-49.951-.07-100.012-.87-149.954.1-3.696.08-11.4 1.32-14.069-1.19l.032-3.06c.419-.32.765-.77 1.259-.95 2.451-.91 84.858.54 93.399.52l455.767-.55c73.739-.07 147.755 1.27 221.457-.3a59714 59714 0 0 0 1.46-781.463"/><path fill="url(#a)" d="M117.118 1932.24c-1.609-65.74-.315-131.94-.107-197.71l-.035-274.03.116-301.64c.019-42.73-1.57-85.78-.504-128.47.103-4.12-.223-9.07 2.895-12.06l2.874.68c3.652 4.03 2.449 10.3 2.184 15.32-.718 13.57-.183 27.43-.166 41.04l.115 78.3-.23 209.89.279 561.24 649.018-.35 165.823-.22c27.615-.06 56.635-1.86 84.11.6 4.02.04 5.04-.18 8.37 2.24-.22 1.45.03 1.99-1.2 3.02-5.03 4.2-57.281 1.95-67.03 1.78-31.966 1.33-64.366.25-96.392.3l-192.47.05z"/><path fill="#010015" d="M1023.49 1924.83c4.02.04 5.04-.18 8.37 2.24-.22 1.45.03 1.99-1.2 3.02-5.03 4.2-57.281 1.95-67.03 1.78 11.305-3.56 34.384 1.62 43.1-2.05l.53-2.17c-3.17-1.75-6.88-1.06-10.356-2.21 8.446.01 16.976.25 25.406-.49z"/><path fill="url(#b)" d="m1015.1 117.955 916.45-.066c1.46 51.434.28 103.177.28 154.64l.03 283.558.02 319.575c0 49.855 1.16 99.911.14 149.728-.08 3.86.16 6.36-1.91 9.73-1.66-.39-3.24-.56-4.6-1.67-1.05-.85-1.05-3.06-1.14-4.35-1.23-17.02-.14-34.753-.13-51.849a10359 10359 0 0 1 .32-107.781l-.34-743.735c-73.42-1.198-146.97-.346-220.41-.35l-426.46.227-177.33-.088-50.54.087c-10.56.067-21.52.785-32-.397-2.11-1.883-1.9-4.529-2.38-7.259"/><path fill="#0E1F49" d="M1612.94 476.644c10.81 5.852 32.27 30.339 41.24 39.806-11.93 9.684-22.96 21.207-33.97 31.951a7266 7266 0 0 0-57.78 57.109l-77.69 77.082c-12.29 12.279-25.02 23.973-36.8 36.771a8472 8472 0 0 0-105.89-103.074c-13.83-13.751-27.4-27.997-42.21-40.705l40.69-40.453 52.52 51.476c18.11 18.09 36.03 36.7 55.39 53.46 28.3-29.015 57.69-56.949 86.42-85.524 26.05-25.911 51.49-52.548 78.08-77.899"/><path fill="#0E1F49" d="M1614.37 607.729c7.64 1.605 33.22 30.282 40.05 37.394-42.26 43.839-86.28 86.065-129.62 128.829-27.22 26.854-53.73 54.403-80.78 81.429-9.67-8.951-18.76-18.607-28.23-27.786l-81.75-79.932a2137 2137 0 0 1-39.17-39.328c11.88-14.033 24.97-26.998 38.34-39.597 10.41 8.138 19.75 18.311 29.24 27.537a4000 4000 0 0 1 43.29 42.454c12.42 12.504 24.51 25.459 37.65 37.207 16.88-15.957 32.75-32.826 49.19-49.222l76.44-75.079c14.94-14.618 29.43-30.388 45.35-43.906m-155.31-301.073c5.86 2.823 27.21 25.636 33.64 31.636 36.41 33.952 73.73 67.219 109.7 101.6-24.63 22.631-50.23 44.367-75.13 66.719a3788 3788 0 0 0-72.49 67.644c-1.54 1.457-3.18 2.584-4.93 3.77-5.43-2.905-14.11-15.115-18.93-20.374a2735 2735 0 0 0-116.97-118.02c15.27-14.851 32.26-28.112 48.03-42.454 32.67-29.697 64.95-60.236 97.08-90.521"/><path fill="#FEFEFE" d="m1458.67 365.713 47.16 38.947c12.65 10.354 25.73 20.461 37.33 32.008-27.08 25.725-55.57 50.196-83.51 74.984-6.13-6.804-12.94-12.965-19.6-19.238-4.45-4.264-8.54-8.803-12.66-13.383 5.69-6.052 11.11-12.207 15.7-19.141l-48.95.113c-8.55-7.675-16.61-15.885-25.18-23.551 21.1-13.4 49-7.192 73.02-9.308l1.65-.152c-6.32-11.314-14.38-21.893-21.89-32.434 12.15-9.801 24.21-19.789 36.93-28.845"/><path fill="#0E1F49" d="m303.091 718.498 520.519-.346c-1.634 30.158-9.068 76.931-26.779 101.396-.565.764-1.124 1.533-1.723 2.271-11.747 14.477-25.42 22.539-44.193 24.494-23.302 2.428-48.175.749-71.697.745l-137.47-.106-104.126.226c-19.352.1-40.047 1.625-59.222-.769-12.195-1.523-25.608-7.177-35.025-15.121-26.114-22.03-37.42-79.691-40.284-112.79"/><path fill="#FEFEFE" d="M349.732 738.473c149.787-1.849 299.76-.397 449.568-.354-2.453 27.948-6.528 60.086-28.213 79.976-4.311 2.906-9.88 5.987-14.99 7.1-15.6 3.398-37.884 1.278-54.145 1.227l-103.462-.248-142.996.16c-24.017.03-49.388 1.656-73.264-.521-7.287-.665-15.47-4.014-21.658-7.955-23.053-14.685-28.753-54.328-33.815-78.926z"/><path fill="#0E1F49" d="M507.734 544.692c4.429.357 8.703 1.374 13.174 1.619 27.484 1.506 55.409.671 82.951.674l112.513-.103c17.589-.039 60.37-2.23 75.223 1.015 8.655 1.892 17.737 8.453 22.048 16.206 4.482 8.062 4.775 18.094 1.869 26.737-4.719 14.032-14.673 20.843-27.361 26.867 11.743 1.327 22.635 2.704 31.719 11.157 7.203 6.701 11.08 16.266 11.253 26.037a40.1 40.1 0 0 1-11.446 28.853c-6.63 6.708-15.258 10.581-24.478 12.13-18.797 3.156-48.96 1.089-69.064 1.102l-151.635-.121-155.557-.354c-25.58-.097-53.989 1.596-79.164-.781-7.161-.676-13.989-2.175-20.17-6.02a37.75 37.75 0 0 1-17.099-23.771 39.25 39.25 0 0 1 5.451-30.423c7.67-11.87 20.738-15.595 33.764-18.101-4.908-3.33-10.342-6.593-14.757-10.563-7.232-6.504-11.723-15.307-11.819-25.126a35.63 35.63 0 0 1 10.676-25.634c14.202-13.835 40.117-9.678 58.484-9.385 16.567 16.389 30.439 36.09 45.606 53.825a2334 2334 0 0 0 77.819-55.84"/><path fill="#FEFEFE" d="M338.194 626.343c24.213-1.81 49.484-.436 73.788-.434l144.409.034 158.61.035c23.85 0 48.528-1.56 72.26-.195 7.303.419 14.336 2.066 20.477 6.182 6.538 4.383 11.124 11.016 12.438 18.82a28.73 28.73 0 0 1-5.07 21.852c-5.178 7.203-12.588 11.555-21.263 12.92-28.777 1.048-57.838.238-86.642.207l-153.123-.086-133.566.259c-24.681.131-49.679 1.095-74.334.217-5.132-.182-10.648-.636-15.418-2.641-7.979-3.355-14.112-10.978-17.005-18.993-2.413-6.688-2.441-13.921.833-20.324 4.953-9.69 13.479-14.832 23.606-17.853"/><path fill="#0E1F49" d="M596.578 1240.32c8.105 4.46 15.973 13.9 22.816 20.27 20.28 18.88 40.114 38.1 60.108 57.27l156.112 147.85c-27.597 28.74-58.769 55.05-88.052 82.1l-89.635 81.41c-20.443 18.67-40.289 37.9-61.136 56.14-.878-37.09.068-74.35-.135-111.47l-285.95.21.036-27.92 27.758-.03 257.916.07-.177-64.86c-23.603-.93-47.491-.26-71.123-.32l-129.44-.2c-.118-8.87.108-17.76.209-26.63l200.494.19.18-62.94c-24.181-.77-48.587-.17-72.784-.19l-128.599.09a1507 1507 0 0 1 .255-26.07c66.938 1.13 134.081-.11 201.036-.24.154-41.48-1.127-83.28.111-124.73m-71.812-901.882c5.598-.373 11.287-.371 16.897-.457 73.095-1.119 168.207.97 223.723 55.463 32.337 31.741 55.459 97.961 55.779 142.751-22.029.322-44.142-.471-66.185-.545l-151.23-.109a17618 17618 0 0 1-296.113.574c.586-9.516 2.749-19.395 4.544-28.767 7.302-38.129 18.682-76.448 45.214-105.908 42.048-46.688 107.145-60.107 167.371-63.002"/><path fill="#FEFEFE" d="M534.124 358.576c58.682-3.708 150.53 2.073 200.277 35.413 41.293 27.674 54.106 76.081 63.192 122.043l-202.117.349-263.188-.187c6.947-34.844 17.258-74.429 41.099-101.632 39.091-44.603 105.216-51.982 160.737-55.986"/><path fill="#0E1F49" d="M495.385 434.329c4.106.081 8.419.228 12.276 1.761 5.681 2.258 10.463 6.561 12.753 12.285a21.2 21.2 0 0 1-.661 17.091c-3.609 7.475-9.928 11.108-17.488 13.691-6.061.228-11.488-.152-16.717-3.546-5.238-3.401-8.964-8.617-10.18-14.771-1.153-5.831-.05-12.08 3.355-16.99 4.163-6.004 9.648-8.469 16.662-9.521"/><path fill="#FEFEFE" d="M492.758 446.091a76 76 0 0 1 2.103-.174c4.49-.296 9.325.106 12.639 3.573 1.81 1.893 2.892 3.827 2.612 6.533-.444 4.296-3.401 7.099-6.521 9.703-2.137.446-4.548 1.081-6.737.879-2.823-.259-6.632-2.354-8.344-4.67-1.945-2.63-2.601-5.254-1.868-8.425.873-3.775 3.063-5.408 6.116-7.419"/><path fill="#0E1F49" d="M629.186 434.188c5.176-.401 10.075-.562 14.964 1.482a23.23 23.23 0 0 1 12.517 12.44c2.238 5.445 2.341 11.696-.07 17.1-3.411 7.644-9.479 11.06-17.043 13.718-3.994.237-7.998.267-11.843-.994-6.43-2.11-11.912-6.728-14.742-12.917-2.463-5.386-2.731-11.614-.421-17.095 3.152-7.477 9.393-10.999 16.638-13.734"/><path fill="#FEFEFE" d="M632.077 445.927c1.314.045 2.631.065 3.931.291 3.498.61 6.752 2.731 8.41 5.928 1.465 2.825 1.367 6.019.026 8.842-1.742 3.671-4.526 4.927-8.139 6.361-1.497-.1-1.714-.082-3.331-.357-3.484-.593-6.592-2.558-8.425-5.599-1.419-2.355-1.758-5.1-.886-7.731 1.425-4.299 4.644-5.878 8.414-7.735"/><path fill="#0E1F49" d="M560.262 433.164c3.814-.197 7.636-.325 11.363.652 6.562 1.721 12.722 5.79 15.939 11.891a21.77 21.77 0 0 1 1.309 17.563c-2.868 8.156-8.735 11.976-16.214 15.394-4.501.624-9.489.899-13.876-.47a22.26 22.26 0 0 1-13.512-11.706 24.06 24.06 0 0 1-.539-19.281c3.069-7.501 8.37-10.915 15.53-14.043"/><path fill="#FEFEFE" d="M561.836 444.973a53 53 0 0 1 3.399-.038c4.037.116 7.925 1.706 10.44 4.995 1.721 2.252 2.175 4.72 1.858 7.482-.482 4.219-3.427 6.963-6.525 9.482-1.487.095-2.977.189-4.468.172-3.605-.039-6.505-1.735-8.856-4.415-2.223-2.535-3.222-5.672-2.643-9.028.768-4.448 3.317-6.273 6.795-8.65"/><path fill="#0E1F49" d="M594.215 381.167c4.786-.379 9.078.079 13.603 1.801 6.05 2.304 11.081 6.746 13.663 12.735a22.03 22.03 0 0 1-.103 17.431c-3.212 7.429-9.361 11.289-16.668 13.958-4.18.62-8.375.685-12.458-.58a22.64 22.64 0 0 1-13.628-11.329 23.76 23.76 0 0 1-.999-19.023c3.17-8.231 8.762-11.737 16.59-14.993"/><path fill="#FEFEFE" d="M594.964 392.024c.325-.009.651-.021.976-.026 4.63-.07 8.122.926 11.371 4.374a11.2 11.2 0 0 1 3.07 8.686c-.416 4.918-3.086 7.539-6.767 10.463-1.972.341-4.135.695-6.136.593-2.473-.127-5.606-1.803-7.154-3.774-2.132-2.714-2.935-5.583-2.571-9.012.574-5.418 3.126-8.009 7.211-11.304"/><path fill="#0E1F49" d="M525.237 380.348c4.286.319 7.847 1.005 11.728 2.976 6.146 3.12 10.921 8.357 12.831 15.045 1.702 5.958 1.008 12.273-2.202 17.606-4.216 7.002-10.125 9.346-17.659 11.342-5.555-.129-10.368-.762-15.213-3.689-5.363-3.24-9.441-8.463-10.878-14.599a22.44 22.44 0 0 1 2.939-17.143c4.299-6.757 10.823-10.033 18.454-11.538"/><path fill="#FEFEFE" d="M525.985 392.003c1.611.294 3.486.533 5.002 1.142a12.92 12.92 0 0 1 7.058 7.137c.992 2.54.942 5.24-.058 7.757-1.633 4.109-4.518 5.703-8.437 7.289-2.042-.156-4.345-.195-6.317-.818-2.641-.833-4.984-3.13-6.275-5.528-1.485-2.757-1.56-6.034-.383-8.908 1.815-4.431 5.152-6.381 9.41-8.071"/><path fill="#0E1F49" d="M451.257 382.133c5.218-.493 9.963-.451 14.897 1.557 6.225 2.533 11.414 7.422 13.882 13.724 2.15 5.49 2.057 11.891-.484 17.236-3.318 6.982-8.98 10.144-15.948 12.698-4.991.497-10.038.666-14.825-1.088a24.08 24.08 0 0 1-13.971-13.576c-2.246-5.66-2.242-12.132.374-17.668 3.343-7.078 9.025-10.26 16.075-12.883"/><path fill="#FEFEFE" d="M454.012 393.859c1.847.019 4.209-.121 5.978.404 2.914.865 5.549 3.067 6.994 5.745 1.503 2.784 1.688 5.97.563 8.934-1.596 4.201-4.384 5.613-8.244 7.354-.641-.007-1.282-.004-1.922-.021-3.619-.097-7.362-1.277-9.635-4.295-1.912-2.539-2.686-5.191-2.009-8.344 1.06-4.931 4.207-7.237 8.275-9.777"/><path fill="#0E1F49" d="M662.051 382.136c6.554-.783 12.753-.433 18.628 2.915 7.584 4.321 10.342 11.191 12.319 19.228-.354 1.915-.713 3.853-1.27 5.721-2.73 9.152-9.39 13.579-17.476 17.578-5.269 1.164-9.114 1.722-14.314-.2-6.33-2.341-11.165-7.224-13.708-13.451-2.473-6.056-2.518-12.956.253-18.917 3.225-6.935 8.689-10.181 15.568-12.874"/><path fill="#FEFEFE" d="M664.077 392.897a56 56 0 0 1 2.449.059c3.852.194 7.809 1.621 10.2 4.858 2.259 3.058 2.711 5.996 1.958 9.64-.906 4.387-4.505 6.88-7.911 9.317-1.737.121-3.547.278-5.285.124-2.517-.223-5.507-1.821-7.039-3.878-1.988-2.669-2.622-5.458-2.148-8.699.83-5.672 3.362-8.043 7.776-11.421"/><path fill="#0E1F49" d="M1451.56 1198.41c23.26-2.86 51.27-.21 74.35 3.94 67.05 12.06 131.29 55.23 169.82 110.88a276.85 276.85 0 0 1 44.35 211.14 266.38 266.38 0 0 1-113.9 173.89c-61.59 41.88-134.47 54.49-207.02 40.44-31.42-6.54-59.8-19.02-86.87-35.93-20.61 5.44-40.92 12.23-61.28 18.51-22.88 7.07-45.87 13.8-68.48 21.68 13.74-41.56 29.18-82.65 43.11-124.18-5.33-7.02-9.5-15.54-13.5-23.42-17.33-34.14-27.87-69.59-30.55-107.9-5.08-72.46 20.71-143.02 68.07-197.52a265.05 265.05 0 0 1 181.9-91.53"/><path fill="#FEFEFE" d="M1460.25 1209.41c21.73-1.39 44.25.43 65.57 4.62 65.68 12.91 124.93 54.51 161.95 109.7 39.84 59.41 54.74 129.5 40.49 199.78a261.22 261.22 0 0 1-113.59 168.42c-54.89 35.86-126.19 49.1-190.35 35.79-32.51-5.57-62.32-20.73-89.92-38.11-36.92 11.95-74.55 22.75-111.73 33.93 12.05-35.44 24.93-70.64 36.41-106.27-25.26-40.82-42.43-80.33-45.86-128.9a262.62 262.62 0 0 1 65.48-191.28c47.39-54.44 110.27-82.59 181.55-87.68"/><path fill="#0E1F49" d="M1385.78 1322.14c24.34-2.15 50.19-.38 74.72-.37 31.91.01 64.28-1.27 96.14 0 4.63.19 10.02.68 13.06 4.72 2.15 2.85 2.69 5.85 2.13 9.34-.84 5.3-3.39 7.86-7.51 11.01-32.32 2.4-70.22.57-103.32.64-19.67.04-51.43 2.01-70.06-.28-4.03-.5-7.87-1.52-10.37-4.99-2.32-3.21-2.5-7.25-1.73-11.01.96-4.67 3.03-6.55 6.94-9.06m-1.1 275c21.22-2.4 53.94-.41 76.82-.45l63.15-.17c11.72-.02 23.8-.63 35.48.23 4.64.34 9.65 1.3 12.58 5.31 2 2.75 2.15 6.1 1.41 9.29-1.26 5.42-4.14 7.49-8.68 10.34-12.95 2.32-45.33.41-60.24.4l-72.77-.04c-13.74-.01-27.94.62-41.64-.43-4.36-.34-9.22-1.22-11.91-5.11-2.01-2.9-2.47-5.95-1.77-9.35 1.04-5.04 3.42-7.26 7.57-10.02m-48.79-195.11a50 50 0 0 1 4.26-.1c8.8.22 47.23 42.31 55.17 50.73 8.78-8.44 44.91-48.52 53.03-49.76 4.27-.65 9.12.52 12.33 3.47 2.21 2.03 3.14 4.63 3.24 7.56.08 2.36-.6 4.37-1.86 6.34-6.85 10.68-38.2 39.22-49.35 50.35 11.34 10.27 40.07 38.36 48.47 50.17 2.03 2.85 3.23 5.73 2.23 9.29-1.12 3.96-4.59 6.44-7.78 8.67-1.37.1-2.75.2-4.14.21-10.52.04-46.45-40.85-55.94-49.97-8.36 7.41-48.34 48.92-53.54 50.12-3.34.77-6.79-.37-9.5-2.33-3.05-2.21-5.23-5.51-5.46-9.34-.58-9.49 41.27-48.72 49.64-58.12-11.92-12.57-41.18-37.35-48.68-50.25-1.61-2.76-2.34-5.95-1.11-9.04 1.63-4.08 5.31-6.1 8.99-8m161.62-.92c2.65.45 4.93 1.01 7.13 2.6 7.85 5.68 14.65 14.36 21.41 21.35a733 733 0 0 0 28.86 28.35c11.65-11.05 40.6-47.85 53.72-50.41 3.64-.71 7.95-.36 10.88 2.14 1.95 1.66 2.91 4.21 2.84 6.75-.36 12.21-41.39 48.26-51.52 58.94 15.04 15.91 32.49 30.59 46.69 47.12 2.92 3.4 5.13 7.97 4.38 12.62-.86 5.29-4.33 7.92-8.44 10.83-3.15.06-6.57-.02-9.38-1.61-9.59-5.42-40.15-39.74-50.92-50.07-7.67 7.46-46.44 48.69-52.61 49.67-3.43.54-7.58-.44-10.33-2.59-3.09-2.42-4.59-5.69-5.04-9.49 3.23-12.11 39.93-45.31 50.48-56.12-11-11.79-44.63-40.39-49.39-53.33-1.27-3.44-1.67-7.36.4-10.59 2.46-3.87 6.71-4.92 10.84-6.16"/></svg>